<svg xmlns="http://www.w3.org/2000/svg" viewBox="0 0 679 528"><path d="M298.1 336l40.7-43 42.1 43L483 229.9v-80.4L340.2 0 196 149.5v80.4L298.1 336zm-.8-27.3L214 222.1v-64.9L339.2 27.3 464 157.2v64.9l-83.3 86.6-41.9-42.9-41.5 42.9z" fill="#ffc600"/><path d="M211 223.3l88.5 92 39.3-41 39.7 41 88.5-92v-69.4L339.2 20.5 211 153.9v69.4z" fill="#15232d"/><path d="M255.5 188l42.8-45.4c.9-1 1.7-.7 1.7.8v70.2c0 1.4.8 1.8 1.7.8l26.6-26.5c.9-1 1.7-3 1.7-4.4V69.8c0-1.4-.8-1.8-1.7-.8l-91 94.7c-.9 1-1 2.7 0 3.8l18.2 20.5zm167.2.2l-42-45.5c-.9-1-1.7-.7-1.7.7v70.3c0 1.4-.8 1.8-1.7.8L351.7 188c-.9-1-1.7-3-1.7-4.5V69.8c0-1.4.8-1.7 1.7-.7l89.1 94.9c.9 1 .9 2.6 0 3.7l-18.1 20.5z" fill="#fff"/><path d="M236.6 167.1l25 14.8-6.3 6.5-18.7-21.3zm205 0l-25 14.8 6.3 6.5 18.7-21.3z" fill="#999"/><path d="M339 199.8c-.5.1-1 .3-1.3.7l-34.3 35.6c-.9 1-2.5 1-3.5 0l-62.4-68.2c-1-1-.8-2.9-.8-2.9s-.7 1.2-.7 3.1v40c0 1.4.8 3.4 1.8 4.4l62.2 66.7c.9 1.1 2.5 1.1 3.5 0l34.2-36.8c.4-.4.8-.6 1.3-.7.5.1.9.3 1.3.7l34.2 36.8c1 1.1 2.6 1.1 3.5 0l62.2-66.7c1-1 1.8-3 1.8-4.4v-40c0-1.9-.7-3.1-.7-3.1s.2 1.9-.8 2.9l-62.4 68.2c-1 1-2.6 1-3.5 0l-34.3-35.6c-.3-.4-.8-.6-1.3-.7z" fill="#fff"/><path d="M339 199.8c-.5.1-1 .3-1.3.7l-34.3 35.6c-.6.7-1.6.9-2.4.7v43.1c.8.3 1.8 0 2.5-.7l34.2-36.8c.4-.4.8-.6 1.3-.7.5.1.9.3 1.3.7l34.2 36.8c.7.7 1.7 1 2.5.7v-43.1c-.8.2-1.8 0-2.4-.7l-34.3-35.6c-.3-.4-.8-.6-1.3-.7z" fill="#ccc"/><path d="M469.7 351c-1.2 0-1.7 1-1.7 2.1V397h-.7l-16.1-44.8c-.4-.9-1-1.2-1.9-1.2h-9.6c-1.1 0-1.7.6-1.7 1.7v80.6c0 1.1.6 1.7 1.7 1.7h9.6c1.2 0 1.7-.6 1.7-1.7V389h.5l17.3 44.7c.3.9.9 1.3 1.9 1.3h10.6c1.1 0 1.7-.6 1.7-1.7v-80.6c0-1.1-.6-1.7-1.7-1.7h-11.6zM388 420.9c0 9.3 5.2 14.1 15.1 14.1h12.1c9.1 0 13.8-4.8 13.8-14.1v-55.8c0-9.3-4.7-14.1-13.8-14.1h-12.1c-9.9 0-15.1 4.8-15.1 14.1v55.8zm17.3 2.1c-2.8 0-4.3-2-4.3-4.9v-49.7c0-2.9 1.5-4.4 4.3-4.4h6.4c2.8 0 4.3 1.5 4.3 4.4v50.2c0 3-1.5 4.4-4.3 4.4h-6.4zm-61.6-72c-1.1 0-1.7 1.2-1.7 2.3v11c0 1.1.6 1.7 1.7 1.7H356v67.7c0 1.2.6 1.3 1.7 1.3h10.6c1.2 0 1.7-.5 1.7-1.7V366h11.8c1.1 0 2.2-.6 2.2-1.7v-11.6c0-1.1-.5-1.7-1.7-1.7h-38.6zm-16 0c-1.2 0-2 .9-2.4 2.1L313.7 383l-11.6-30.3c-.4-1.2-1.2-1.7-2.4-1.7h-10.4c-1.5 0-1.9.9-1.3 2.4l19 46.8v32.7c0 1.4.7 2.1 2.1 2.1h8.8c1.4 0 2.1-.7 2.1-2.1v-32.7l19-46.8c.6-1.5.6-2.4-.9-2.4h-10.4zm-33.2 84c1.2 0 1.6-.8 1.4-2L279 352.5c-.2-1.1-.8-1.5-1.8-1.5h-14.1c-1 0-1.6.4-1.8 1.5l-16.9 80.7c-.3 1.2.2 1.8 1.3 1.8h10.9c1 0 1.5-.6 1.7-1.5L261 418h18.2l2.8 15.5c.2.9.7 1.5 1.7 1.5h10.8zm-17.9-30h-13l6.5-35.6 6.5 35.6zM197 433.3v.1c0 1.1.2 1.6 1.3 1.6h26.5c9.9 0 15.2-5.3 15.2-15.2v-53.5c0-9.9-5.3-15.3-15.2-15.3h-26.1c-1.2 0-1.7.6-1.7 1.7v80.6zm13-11.3v-56h11.4c3 0 4.6 1.4 4.6 4.2v47.7c0 2.8-1.6 4.1-4.6 4.1H210z" fill="#666"/><path d="M653.2 447h-.1c-9.1 0-14.1 5.5-14.1 14.8v23.7c0 1.9.8 3.1 2.6 3.7l24.4 7.9V510c0 2.7-1.5 4-4.3 4h-5.4c-2.7 0-4.3-1.3-4.3-4v-7.4c0-1.1-.5-1.6-1.6-1.6h-9.8c-1 0-1.6.5-1.6 1.6v11c0 9.4 5 14.4 14.2 14.4h11.6c9.3 0 14.2-5 14.2-14.4V490c0-1.9-1.2-3-2.8-3.7l-24.2-7.8V465c0-2.6 1.6-4 4.3-4h5.4c2.9 0 4.3 1.4 4.3 4v7.4c0 1 .6 1.6 1.6 1.6h9.8c1.1 0 1.6-.6 1.6-1.6v-11c0-9.4-4.9-14.4-14.2-14.4h-11.6zM631 461.6c0-9.5-5.4-14.6-14.7-14.6h-26.7c-1 0-1.6.6-1.6 1.6v77.8c0 1 .6 1.6 1.6 1.6h10.8c1 0 1.6-.6 1.6-1.6V501h7.7l7.1 25.1c.3.9.8 1.9 1.8 1.9h10.2c1.1 0 1.7-.6 1.4-1.8l-6.4-26c4.7-2.1 7.2-6.5 7.2-13.3v-25.3zM602 488v-27h10.5c2.9 0 4.5 1.4 4.5 4.1v18.8c0 2.7-1.6 4.1-4.5 4.1H602zm-20-39.4c0-1-.8-1.6-2-1.6h-37.5c-.9 0-1.5.6-1.5 1.6v77.8c0 1 .6 1.6 1.5 1.6h37.9c1.2 0 1.6-.6 1.6-1.6v-9.8c0-1.1-.4-1.6-1.6-1.6H555v-21h19.9c1 0 1.1-.6 1.1-1.7v-9.6c0-1.1-.6-1.7-1.6-1.7H555v-21h25.9c1.2 0 1.1-.7 1.1-1.7v-9.7zm-90 77.8c0 1 .8 1.6 1.8 1.6h10.6c1.1 0 1.6-.6 1.6-1.6V501h13.2c9.3 0 13.8-5.2 13.8-14.6v-24.8c0-9.5-4.9-14.6-14.2-14.6h-25.2c-1 0-1.6.6-1.6 1.6v77.8zm14-39.4v-27h8.7c2.9 0 4.3 1.4 4.3 4.1v18.8c0 2.6-1.4 4.1-4.3 4.1H506zm-63 26.4c0 9.5 5.4 14.6 14.8 14.6h11.6c9.5 0 14.6-5.1 14.6-14.6v-51.8c0-9.5-5.1-14.6-14.6-14.6h-11.9c-9.5 0-14.5 5.1-14.5 14.6v51.8zm18 1.6c-2.6 0-4-1.8-4-4.5V464c0-2.6 1.4-4 4-4h6c2.6 0 4 1.4 4 4v46.9c0 2.8-1.4 4.1-4 4.1h-6zm-50-1v-65.4c0-1-.5-1.6-1.6-1.6h-9.8c-1 0-1.6.6-1.6 1.6v77.8c0 1.1.6 1.6 1.6 1.6h35.8c1.1 0 1.6-.5 1.6-1.6v-10.6c0-1-.5-1.8-1.6-1.8H411zm-22-65.4c0-1 0-1.6-1.2-1.6h-37.3c-.9 0-1.5.6-1.5 1.6v77.8c0 1 .6 1.6 1.5 1.6h36.9c1.2 0 1.6-.6 1.6-1.6v-9.8c0-1.1-.4-1.6-1.6-1.6H362v-21h19c1.1 0 2-.6 2-1.7v-9.6c0-1.1-.6-1.7-1.6-1.7H362v-21h25c1.3 0 2-.7 2-1.7v-9.7zm-58.2-1.6c-1.3 0-2 1.1-2.3 2.3l-10.8 54.3-10.6-54.8c-.3-1.2-1-1.8-2.3-1.8h-9.6c-1.5 0-2.2.8-1.9 2.2l17.1 77c.3 1.2 1 1.8 2.3 1.8h10.1c1.3 0 2-.6 2.3-1.8l17.2-77c.3-1.4-.4-2.2-1.9-2.2h-9.6zm-43.8 1.6c0-1-.8-1.6-2.1-1.6h-37.4c-.9 0-1.5.6-1.5 1.6v77.8c0 1 .6 1.6 1.5 1.6h37.9c1.2 0 1.6-.6 1.6-1.6v-9.8c0-1.1-.4-1.6-1.6-1.6H260v-21h19.9c1 0 1.1-.6 1.1-1.7v-9.6c0-1.1-.6-1.7-1.6-1.7H260v-21h25.9c1.2 0 1.1-.7 1.1-1.7v-9.7zm-90 77.8c0 1.1.7 1.6 1.8 1.6h24.6c9.5 0 14.6-5.1 14.6-14.6v-51.7c0-9.5-5.1-14.7-14.6-14.7h-24.8c-1.1 0-1.6.6-1.6 1.6v77.8zm13-12.4v-54h9.8c2.7 0 4.2 1.4 4.2 4.2v45.7c0 2.8-1.5 4.1-4.2 4.1H210zm-45-52.4c0-9.5-4.7-14.6-14.2-14.6h-24.2c-1 0-1.6.5-1.6 1.6v77.8c0 1 .6 1.6 1.6 1.6h23.8c9.5 0 14.6-5.1 14.6-14.6v-18.1c0-3.8-2.7-6.6-6.3-7.2v-.2c3.6-.6 6.3-3.4 6.3-7.2v-19.1zM152 477c0 2.6-1.4 4-4.2 4H138v-21h9.5c2.9 0 4.5 1.4 4.5 4.1V477zm0 33.9c0 2.8-1.4 4.1-4.2 4.1H138v-21h9.5c2.9 0 4.5 1.4 4.5 4.1v12.8zm-36-62.3c0-1 .1-1.6-1.2-1.6H77.5c-.9 0-1.5.6-1.5 1.6v77.8c0 1 .6 1.6 1.5 1.6h36.9c1.2 0 1.6-.6 1.6-1.6v-9.8c0-1.1-.4-1.6-1.6-1.6H89v-21h19c1 0 2-.6 2-1.7v-9.6c0-1.1-.6-1.7-1.6-1.7H89v-21h25c1.2 0 2-.7 2-1.7v-9.7zM55.4 447c-1.2 0-2 .9-2.1 2.1L49.2 496h-.5l-10-47.4c-.3-1.2-1-1.6-2.2-1.6h-6.1c-1.2 0-1.9.4-2.2 1.6L18.1 496h-.5l-3.9-47.3c-.1-1.2-.9-1.7-2.1-1.7H1.9c-1.3 0-2 .8-1.9 2.1l8.3 77c.1 1.3.8 1.9 2.1 1.9h10.2c1.2 0 1.9-.6 2.2-1.7l10.7-45.8L44 526.2c.3 1.2 1 1.8 2.2 1.8h9.9c1.4 0 2.1-.6 2.2-1.9l8.7-77c.1-1.3-.6-2.1-1.9-2.1h-9.7z" fill="#15232d"/><path d="M2.8 396.5h174.3m325.7 0h173.3" stroke="#ccc" stroke-width="6" fill="none"/></svg>